<svg width="44" height="43" viewBox="0 0 44 43" fill="none" xmlns="http://www.w3.org/2000/svg">
<g filter="url(#filter0_d_466_1077)">
<rect x="3" width="38" height="38" rx="4.30753" fill="white"/>
</g>
<path fill-rule="evenodd" clip-rule="evenodd" d="M19.6234 13.4751C19.471 13.0877 19.0387 12.8993 18.6578 13.0542C18.2768 13.2092 18.0915 13.6489 18.2439 14.0362L19.0949 16.1999C18.6759 16.3265 18.2684 16.4772 17.8745 16.6467L15.4969 14.2288C15.2068 13.9337 14.7364 13.9337 14.4463 14.2288C14.1562 14.5238 14.1562 15.0021 14.4463 15.2972L16.4708 17.356C13.7779 18.9232 12.0001 21.1762 12.0001 21.814C12.0001 22.8213 16.4347 27.8577 21.9052 27.8577C27.3757 27.8577 31.8103 22.8213 31.8103 21.814C31.8103 21.1762 30.0325 18.9232 27.3396 17.356L29.3641 15.2972C29.6542 15.0021 29.6542 14.5238 29.3641 14.2288C29.074 13.9337 28.6036 13.9337 28.3135 14.2288L25.9359 16.6467C25.542 16.4772 25.1345 16.3265 24.7155 16.1999L25.5665 14.0362C25.7189 13.6489 25.5336 13.2092 25.1526 13.0542C24.7717 12.8993 24.3394 13.0877 24.187 13.4751L23.2452 15.8693C22.807 15.805 22.3597 15.7702 21.9052 15.7702C21.4507 15.7702 21.0034 15.805 20.5652 15.8693L19.6234 13.4751ZM25.8673 21.814C25.8673 24.0392 24.0934 25.8431 21.9052 25.8431C19.717 25.8431 17.9431 24.0392 17.9431 21.814C17.9431 19.5887 19.717 17.7848 21.9052 17.7848C24.0934 17.7848 25.8673 19.5887 25.8673 21.814Z" fill="#202020"/>
<path d="M21.9052 25.0875C23.5463 25.0875 24.8767 23.7345 24.8767 22.0656C24.8767 21.9483 24.8702 21.8326 24.8574 21.7188C24.7222 22.6976 23.8955 23.4507 22.8957 23.4507C21.8016 23.4507 20.9147 22.5488 20.9147 21.4361C20.9147 20.3235 21.8016 19.4216 22.8957 19.4216C23.1083 19.4216 23.3131 19.4556 23.5051 19.5187C23.0433 19.218 22.4943 19.0437 21.9052 19.0437C20.2641 19.0437 18.9337 20.3967 18.9337 22.0656C18.9337 23.7345 20.2641 25.0875 21.9052 25.0875Z" fill="#202020"/>
<defs>
<filter id="filter0_d_466_1077" x="0.846236" y="0" width="42.3075" height="42.3075" filterUnits="userSpaceOnUse" color-interpolation-filters="sRGB">
<feFlood flood-opacity="0" result="BackgroundImageFix"/>
<feColorMatrix in="SourceAlpha" type="matrix" values="0 0 0 0 0 0 0 0 0 0 0 0 0 0 0 0 0 0 127 0" result="hardAlpha"/>
<feOffset dy="2.15376"/>
<feGaussianBlur stdDeviation="1.07688"/>
<feColorMatrix type="matrix" values="0 0 0 0 0 0 0 0 0 0 0 0 0 0 0 0 0 0 0.18 0"/>
<feBlend mode="normal" in2="BackgroundImageFix" result="effect1_dropShadow_466_1077"/>
<feBlend mode="normal" in="SourceGraphic" in2="effect1_dropShadow_466_1077" result="shape"/>
</filter>
</defs>
</svg>
