<svg width="38" height="38" viewBox="0 0 38 38" fill="none" xmlns="http://www.w3.org/2000/svg">
<g filter="url(#filter0_d_466_1077)">
<rect width="38" height="38" rx="4.30753" fill="white"/>
</g>
<path fill-rule="evenodd" clip-rule="evenodd" d="M16.6234 13.4751C16.471 13.0877 16.0386 12.8993 15.6577 13.0542C15.2768 13.2092 15.0915 13.6489 15.2438 14.0362L16.0949 16.1999C15.6758 16.3265 15.2684 16.4772 14.8745 16.6467L12.4968 14.2288C12.2067 13.9337 11.7364 13.9337 11.4462 14.2288C11.1561 14.5238 11.1561 15.0021 11.4462 15.2972L13.4708 17.356C10.7778 18.9232 9 21.1762 9 21.814C9 22.8213 13.4347 27.8577 18.9051 27.8577C24.3756 27.8577 28.8103 22.8213 28.8103 21.814C28.8103 21.1762 27.0324 18.9232 24.3395 17.356L26.364 15.2972C26.6542 15.0021 26.6542 14.5238 26.364 14.2288C26.0739 13.9337 25.6036 13.9337 25.3134 14.2288L22.9358 16.6467C22.5419 16.4772 22.1344 16.3265 21.7154 16.1999L22.5664 14.0362C22.7188 13.6489 22.5335 13.2092 22.1526 13.0542C21.7716 12.8993 21.3393 13.0877 21.1869 13.4751L20.2452 15.8693C19.807 15.805 19.3596 15.7702 18.9051 15.7702C18.4507 15.7702 18.0033 15.805 17.5651 15.8693L16.6234 13.4751ZM22.8672 21.814C22.8672 24.0392 21.0933 25.8431 18.9051 25.8431C16.717 25.8431 14.9431 24.0392 14.9431 21.814C14.9431 19.5887 16.717 17.7848 18.9051 17.7848C21.0933 17.7848 22.8672 19.5887 22.8672 21.814Z" fill="#202020"/>
<path d="M18.9051 25.0875C20.5463 25.0875 21.8767 23.7345 21.8767 22.0656C21.8767 21.9483 21.8701 21.8326 21.8573 21.7188C21.7222 22.6976 20.8954 23.4507 19.8957 23.4507C18.8016 23.4507 17.9146 22.5488 17.9146 21.4361C17.9146 20.3235 18.8016 19.4216 19.8957 19.4216C20.1083 19.4216 20.3131 19.4556 20.5051 19.5187C20.0432 19.218 19.4942 19.0437 18.9051 19.0437C17.264 19.0437 15.9336 20.3967 15.9336 22.0656C15.9336 23.7345 17.264 25.0875 18.9051 25.0875Z" fill="#202020"/>
<defs>
<filter id="filter0_d_466_1077" x="-2.15376" y="0" width="42.3075" height="42.3075" filterUnits="userSpaceOnUse" color-interpolation-filters="sRGB">
<feFlood flood-opacity="0" result="BackgroundImageFix"/>
<feColorMatrix in="SourceAlpha" type="matrix" values="0 0 0 0 0 0 0 0 0 0 0 0 0 0 0 0 0 0 127 0" result="hardAlpha"/>
<feOffset dy="2.15376"/>
<feGaussianBlur stdDeviation="1.07688"/>
<feColorMatrix type="matrix" values="0 0 0 0 0 0 0 0 0 0 0 0 0 0 0 0 0 0 0.18 0"/>
<feBlend mode="normal" in2="BackgroundImageFix" result="effect1_dropShadow_466_1077"/>
<feBlend mode="normal" in="SourceGraphic" in2="effect1_dropShadow_466_1077" result="shape"/>
</filter>
</defs>
</svg>
