<svg width="137" height="35" viewBox="0 0 137 35" fill="none" xmlns="http://www.w3.org/2000/svg">
<path d="M31.3635 12.9766C30.819 12.7168 30.2088 12.571 29.5638 12.571C29.3079 12.571 29.0573 12.5942 28.8141 12.6386C28.7771 12.6449 28.7401 12.6523 28.703 12.6608C28.6428 12.6724 28.5836 12.6872 28.5243 12.702C28.4799 12.7125 28.4366 12.7242 28.3932 12.7379L28.3805 12.7411C28.2885 12.7675 28.1976 12.7981 28.1088 12.8319C27.8222 12.9376 27.5505 13.0738 27.2977 13.2386" fill="#E43C37"/>
<path d="M33.6622 16.415C33.567 15.4483 33.2339 14.7244 32.8903 14.2178C32.8881 14.2156 32.8871 14.2135 32.885 14.2114C32.4842 13.6889 31.9629 13.2628 31.3633 12.9766C30.62 12.6787 29.9443 12.5918 29.3595 12.6173C29.3278 12.6183 29.2971 12.6205 29.2654 12.6226C29.2242 12.6247 29.1819 12.6279 29.1417 12.6321C29.0803 12.6374 29.0201 12.6448 28.9598 12.6533C28.9429 12.6544 28.9249 12.6575 28.908 12.6607C28.8868 12.6639 28.8657 12.6671 28.8445 12.6703C28.8223 12.6734 28.8001 12.6777 28.7779 12.6819C28.7578 12.6851 28.7367 12.6893 28.7166 12.6925C28.6965 12.6968 28.6764 12.701 28.6574 12.7052C28.6394 12.7084 28.6214 12.7127 28.6034 12.7169C28.5823 12.7211 28.5611 12.7264 28.5411 12.7307C28.3698 12.771 28.2111 12.8197 28.0673 12.8717C28.0451 12.8801 28.0229 12.8876 28.0018 12.896C27.8516 12.9522 27.7173 13.0126 27.5999 13.072C27.583 13.0805 27.5661 13.0889 27.5502 13.0974C27.5344 13.1048 27.5185 13.1133 27.5037 13.1218C27.4879 13.1303 27.4731 13.1377 27.4583 13.1462C27.4297 13.1621 27.4022 13.178 27.3758 13.1928C27.362 13.2002 27.3493 13.2087 27.3366 13.2161C27.324 13.2246 27.3102 13.232 27.2975 13.2394C27.2848 13.2479 27.2721 13.2553 27.2605 13.2628C27.2246 13.2861 27.1928 13.3073 27.1653 13.3264C27.1569 13.3317 27.1484 13.338 27.141 13.3433C27.1135 13.3635 27.086 13.3836 27.0585 13.4037C27.0533 13.408 27.049 13.4111 27.0437 13.4154C27.0406 13.4175 27.0395 13.4186 27.0395 13.4186C26.699 13.9189 26.3585 14.329 26.0212 14.6619C25.9556 14.7435 25.8859 14.823 25.8129 14.8982C25.8256 14.8717 25.8393 14.8463 25.8531 14.8208C22.9314 17.5003 20.3143 14.5209 20.2582 14.4562C20.2572 14.4562 20.2572 14.4552 20.2572 14.4552C20.1556 14.311 20.0446 14.1732 19.9262 14.0439C19.1606 13.2034 18.0588 12.6766 16.8343 12.6766C14.5217 12.6766 12.6468 14.5559 12.6468 16.8739C12.6468 19.1919 14.5217 21.0701 16.8343 21.0701C18.4045 21.0701 19.7729 20.2042 20.4887 18.9227C23.0858 15.7313 25.9091 18.8634 25.9091 18.8634C26.8196 20.2911 26.4082 21.6912 26.1047 22.3664C24.231 25.5398 20.7806 27.6671 16.8343 27.6671C10.8873 27.6671 6.06646 22.8349 6.06646 16.8728C6.06646 10.9108 10.7731 6.19522 16.6217 6.08181C16.6926 6.08075 16.7634 6.07969 16.8343 6.07969C17.1145 6.07969 17.3915 6.09029 17.6665 6.11149C19.2114 5.90905 20.3999 4.61595 20.3999 3.05151C20.3999 1.57186 19.3351 0.334934 17.9118 0.0339174C17.5554 0.0116591 17.1959 0 16.8343 0H16.7486C7.49082 0.0466364 0 7.58266 0 16.8728C0 26.163 7.53735 33.7467 16.8343 33.7467C26.1312 33.7467 33.2212 26.6336 33.6484 17.6953C33.6622 17.4229 33.6685 17.1484 33.6685 16.8728C33.6685 16.7202 33.6664 16.5676 33.6622 16.415ZM20.0911 19.4654C20.1493 19.3785 20.2075 19.2937 20.2667 19.2142C20.1736 19.3605 20.1059 19.4474 20.0911 19.4654ZM20.309 14.5325C20.3143 14.5389 20.3185 14.5463 20.3227 14.5527C20.3682 14.6205 20.4115 14.6894 20.4507 14.7604C20.4063 14.6852 20.3587 14.6089 20.309 14.5325Z" fill="#E43C37"/>
<path d="M20.2668 19.2162C20.1738 19.3614 20.1061 19.4476 20.0913 19.4655C20.1495 19.3793 20.2076 19.2951 20.2668 19.2162Z" fill="#E43C37"/>
<path d="M20.4505 14.7582C20.4061 14.6837 20.3585 14.608 20.3088 14.5324C20.3141 14.5387 20.3184 14.5461 20.3226 14.5524C20.3681 14.6196 20.4114 14.6879 20.4505 14.7582Z" fill="#E43C37"/>
<path d="M26.0211 14.6637C25.9555 14.7448 25.8857 14.8238 25.8127 14.8986C25.8254 14.8723 25.8392 14.847 25.8529 14.8217" fill="#E43C37"/>
<path d="M31.3637 12.9748C30.6203 12.6779 29.9446 12.5913 29.3598 12.6167C29.3281 12.6177 29.2974 12.6198 29.2657 12.6219C29.2245 12.6241 29.1822 12.6272 29.142 12.6314C29.0796 12.6367 29.0193 12.6441 28.9601 12.6526C28.9432 12.6536 28.9252 12.6568 28.9083 12.66C28.8872 12.6631 28.866 12.6663 28.8449 12.6695C28.8227 12.6726 28.8005 12.6769 28.7783 12.6811C28.7582 12.6843 28.737 12.6885 28.7169 12.6917C28.6968 12.6959 28.6767 12.7001 28.6577 12.7043C28.6397 12.7075 28.6217 12.7117 28.6038 12.716C28.5826 12.7202 28.5615 12.7244 28.5414 12.7297C28.3701 12.7698 28.2115 12.8184 28.0677 12.8702C28.0454 12.8786 28.0232 12.886 28.0021 12.8945C27.8519 12.9505 27.7176 13.0107 27.6003 13.0699C27.5834 13.0783 27.5664 13.0868 27.5506 13.0952C27.5347 13.1026 27.5189 13.1111 27.504 13.1195C27.4882 13.128 27.4734 13.1354 27.4586 13.1438C27.43 13.1597 27.4025 13.1755 27.3761 13.1903C27.6066 13.0466 27.8519 12.9262 28.1089 12.8301C28.1977 12.7973 28.2887 12.7667 28.3807 12.7392C28.3849 12.7381 28.3891 12.7371 28.3933 12.736C28.4367 12.7234 28.4801 12.7107 28.5245 12.7001C28.5837 12.6853 28.6429 12.6705 28.7032 12.6589C28.7402 12.6505 28.7772 12.6431 28.8142 12.6367C29.0574 12.5924 29.308 12.5691 29.5639 12.5691C30.209 12.5691 30.8191 12.7149 31.3637 12.9748Z" fill="#E43C37"/>
<path d="M17.6664 6.11057C17.5269 6.13 17.3841 6.1392 17.2382 6.1392C17.0267 6.1392 16.8205 6.11977 16.6217 6.08194C16.6926 6.08092 16.7634 6.0799 16.8342 6.0799C17.1145 6.0799 17.3915 6.09012 17.6664 6.11057Z" fill="#E43C37"/>
<path d="M20.2668 19.2162C20.1738 19.3614 20.1061 19.4476 20.0913 19.4655C20.1495 19.3793 20.2076 19.2951 20.2668 19.2162Z" fill="#E43C37"/>
<path d="M20.4505 14.7582C20.4061 14.6837 20.3585 14.608 20.3088 14.5324C20.3141 14.5387 20.3184 14.5461 20.3226 14.5524C20.3681 14.6196 20.4114 14.6879 20.4505 14.7582Z" fill="#E43C37"/>
<path d="M26.0211 14.6637C25.9555 14.7448 25.8857 14.8238 25.8127 14.8986C25.8254 14.8723 25.8392 14.847 25.8529 14.8217C25.909 14.7722 25.965 14.7196 26.0211 14.6637Z" fill="#E43C37"/>
<path d="M27.1418 13.3435C27.1141 13.3631 27.0864 13.3827 27.0587 13.4024C27.0758 13.3889 27.1035 13.3683 27.1418 13.3435Z" fill="#E43C37"/>
<path d="M32.8852 14.2118C32.4844 13.6895 31.9631 13.2636 31.3635 12.9775C31.5666 13.0591 31.7759 13.1555 31.9885 13.271C31.9885 13.271 32.4453 13.5645 32.8852 14.2118Z" fill="#E43C37"/>
<path d="M15.58 16.8738C16.2727 16.8738 16.8341 16.311 16.8341 15.6167C16.8341 14.9225 16.2727 14.3596 15.58 14.3596C14.8874 14.3596 14.3259 14.9225 14.3259 15.6167C14.3259 16.311 14.8874 16.8738 15.58 16.8738Z" fill="white"/>
<path d="M36.2909 33.7469V14.0885H41.9049L42.1635 20.4932L41.0554 19.2715C41.3509 18.2102 41.8311 17.26 42.4959 16.4208C43.1853 15.5817 43.9856 14.9153 44.8966 14.4217C45.8077 13.9281 46.7803 13.6813 47.8144 13.6813C48.2577 13.6813 48.6639 13.7183 49.0333 13.7923C49.4272 13.8664 49.7843 13.9528 50.1044 14.0515L48.4793 20.6043C48.2084 20.4315 47.8391 20.2958 47.3712 20.197C46.928 20.0736 46.4602 20.0119 45.9677 20.0119C45.426 20.0119 44.9212 20.1106 44.4534 20.3081C43.9856 20.4809 43.5916 20.74 43.2715 21.0855C42.9514 21.4311 42.6929 21.8383 42.4959 22.3073C42.3235 22.7762 42.2373 23.3068 42.2373 23.8992V33.7469H36.2909Z" fill="#E43C37"/>
<path d="M59.5085 34.0801C57.8588 34.0801 56.3814 33.6481 55.0764 32.7843C53.796 31.8958 52.7741 30.6864 52.0108 29.1562C51.2475 27.6013 50.8659 25.849 50.8659 23.8992C50.8659 21.9 51.2475 20.1353 52.0108 18.6051C52.7741 17.0749 53.8206 15.8779 55.1503 15.014C56.4799 14.1255 57.9942 13.6813 59.6932 13.6813C60.6289 13.6813 61.4784 13.817 62.2417 14.0885C63.0296 14.36 63.719 14.7425 64.31 15.2362C64.9009 15.7051 65.4057 16.2604 65.8243 16.9021C66.2429 17.5191 66.5507 18.1855 66.7477 18.9013L65.5288 18.7532V14.0885H71.4014V33.7469H65.418V29.0081L66.7477 28.9711C66.5507 29.6622 66.2306 30.3162 65.7874 30.9332C65.3442 31.5503 64.8025 32.0932 64.1623 32.5622C63.5221 33.0311 62.808 33.4013 62.0201 33.6728C61.2321 33.9443 60.3949 34.0801 59.5085 34.0801ZM61.1336 29.0822C62.0447 29.0822 62.8326 28.8724 63.4974 28.4528C64.1623 28.0332 64.6793 27.4409 65.0487 26.6758C65.418 25.886 65.6027 24.9605 65.6027 23.8992C65.6027 22.8379 65.418 21.9247 65.0487 21.1596C64.6793 20.3698 64.1623 19.7651 63.4974 19.3455C62.8326 18.9013 62.0447 18.6792 61.1336 18.6792C60.2472 18.6792 59.4716 18.9013 58.8068 19.3455C58.1666 19.7651 57.6618 20.3698 57.2925 21.1596C56.9231 21.9247 56.7384 22.8379 56.7384 23.8992C56.7384 24.9605 56.9231 25.886 57.2925 26.6758C57.6618 27.4409 58.1666 28.0332 58.8068 28.4528C59.4716 28.8724 60.2472 29.0822 61.1336 29.0822Z" fill="#E43C37"/>
<path d="M77.8346 33.7469V13.1259C77.8346 11.8425 78.1055 10.6825 78.6472 9.64593C79.2135 8.60933 79.9891 7.79486 80.9741 7.20251C81.9836 6.58549 83.1532 6.27698 84.4828 6.27698C85.4185 6.27698 86.2803 6.41272 87.0682 6.68421C87.8562 6.9557 88.5579 7.33826 89.1735 7.83188L87.4745 12.1634C87.1544 11.9906 86.8466 11.8549 86.5512 11.7561C86.2557 11.6574 85.9848 11.6081 85.7386 11.6081C85.2954 11.6081 84.926 11.6821 84.6306 11.8302C84.3351 11.9783 84.1135 12.2127 83.9658 12.5336C83.8426 12.8298 83.7811 13.2 83.7811 13.6442V33.7469H80.8263C80.1615 33.7469 79.5706 33.7469 79.0535 33.7469C78.561 33.7469 78.1547 33.7469 77.8346 33.7469ZM74.9907 19.5306V14.6438H87.8069V19.5306H74.9907ZM92.3499 33.7469V13.1259C92.3499 11.8425 92.6207 10.6825 93.1624 9.64593C93.7288 8.60933 94.5044 7.79486 95.4893 7.20251C96.4988 6.58549 97.6684 6.27698 98.9981 6.27698C99.9337 6.27698 100.796 6.41272 101.583 6.68421C102.371 6.9557 103.073 7.33826 103.689 7.83188L101.99 12.1634C101.67 11.9906 101.362 11.8549 101.066 11.7561C100.771 11.6574 100.5 11.6081 100.254 11.6081C99.8106 11.6081 99.4413 11.6821 99.1458 11.8302C98.8503 11.9783 98.6287 12.2127 98.481 12.5336C98.3579 12.8298 98.2963 13.2 98.2963 13.6442V33.7469H95.3416C94.6767 33.7469 94.0858 33.7469 93.5687 33.7469C93.0762 33.7469 92.67 33.7469 92.3499 33.7469ZM89.5059 19.5306V14.6438H102.322V19.5306H89.5059ZM105.979 33.7469V14.0885H111.888V33.7469H105.979ZM108.933 10.2012C107.825 10.2012 106.951 9.9421 106.311 9.4238C105.696 8.88082 105.388 8.11571 105.388 7.12847C105.388 6.23995 105.708 5.51187 106.348 4.94421C106.988 4.37654 107.85 4.09271 108.933 4.09271C110.041 4.09271 110.903 4.3642 111.519 4.90718C112.134 5.42548 112.442 6.16591 112.442 7.12847C112.442 8.04166 112.122 8.78209 111.482 9.34975C110.866 9.91742 110.017 10.2012 108.933 10.2012Z" fill="#E43C37"/>
<path d="M129.523 33.7469L125.35 27.4162L123.429 24.7136L115.673 14.0885H122.764L126.79 20.123L128.895 23.0107L136.541 33.7469H129.523ZM115.488 33.7469L123.392 22.7145L126.568 26.5277L122.469 33.7469H115.488ZM128.452 25.1949L125.313 21.4187L129.191 14.0885H136.171L128.452 25.1949Z" fill="#E43C37"/>
</svg>
