<svg width="98" height="98" viewBox="0 0 98 98" fill="none" xmlns="http://www.w3.org/2000/svg">
<path d="M90.9176 37.5318C89.339 36.7778 87.5703 36.3547 85.7004 36.3547C84.9586 36.3547 84.2321 36.4222 83.5271 36.5509C83.4198 36.5693 83.3125 36.5908 83.2052 36.6153C83.0305 36.649 82.8588 36.6919 82.6872 36.7348C82.5584 36.7655 82.4328 36.7992 82.3071 36.8391L82.2703 36.8483C82.0036 36.9249 81.74 37.0138 81.4825 37.1119C80.6518 37.4184 79.864 37.8138 79.1314 38.292" fill="#E43C37"/>
<path d="M97.5816 47.4727C97.307 44.6896 96.3488 42.6023 95.3573 41.138C95.3483 41.1248 95.3399 41.1112 95.3286 41.0999C94.1668 39.5887 92.6556 38.3564 90.9176 37.5288C88.7627 36.6674 86.8039 36.4161 85.1088 36.4897C85.0168 36.4927 84.9279 36.4988 84.836 36.505C84.7164 36.5111 84.5938 36.5203 84.4773 36.5326C84.2996 36.5479 84.1248 36.5693 83.9501 36.5939C83.901 36.5969 83.8489 36.6061 83.7999 36.6153C83.7386 36.6245 83.6773 36.6337 83.616 36.6429C83.5516 36.6521 83.4872 36.6644 83.4229 36.6766C83.3646 36.6858 83.3033 36.6981 83.2451 36.7073C83.1868 36.7196 83.1286 36.7318 83.0734 36.7441C83.0213 36.7533 82.9692 36.7655 82.9171 36.7778C82.8558 36.7901 82.7945 36.8054 82.7362 36.8176C82.2397 36.9341 81.7798 37.0751 81.363 37.2253C81.2986 37.2499 81.2342 37.2713 81.1729 37.2958C80.7376 37.4583 80.3483 37.633 80.0081 37.8047C79.959 37.8292 79.91 37.8537 79.864 37.8782C79.818 37.8997 79.7721 37.9242 79.7291 37.9487C79.6832 37.9733 79.6403 37.9947 79.5973 38.0192C79.5146 38.0652 79.4349 38.1112 79.3582 38.1541C79.3184 38.1756 79.2816 38.2001 79.2448 38.2216C79.208 38.2461 79.1682 38.2675 79.1314 38.289C79.0946 38.3135 79.0578 38.335 79.0241 38.3564C78.9199 38.4239 78.8279 38.4852 78.7482 38.5404C78.7237 38.5557 78.6992 38.5741 78.6777 38.5894C78.598 38.6476 78.5183 38.7059 78.4386 38.7641C78.4233 38.7764 78.411 38.7856 78.3957 38.7978C78.3872 38.8035 78.3805 38.8113 78.3748 38.8197C77.3906 40.2608 76.4065 41.443 75.4316 42.4027C75.2682 42.6055 75.0958 42.8039 74.9163 42.9938C74.9 43.011 74.8746 42.9925 74.8857 42.9715C74.8966 42.9507 74.8671 42.9326 74.8496 42.9483C66.432 50.5352 58.9119 42.022 58.7264 41.809C58.7252 41.8076 58.7233 41.8078 58.7227 41.8061C58.7222 41.8048 58.7221 41.8044 58.7213 41.8033C58.4273 41.387 58.1059 40.9891 57.763 40.6156C55.5437 38.1848 52.3496 36.6613 48.8 36.6613C42.0961 36.6613 36.6613 42.0961 36.6613 48.8C36.6613 55.5039 42.0961 60.9356 48.8 60.9356C53.1027 60.9356 56.8823 58.6981 59.036 55.3232C59.2854 54.9323 59.5431 54.5345 59.851 54.1878C66.1817 47.0604 72.8479 52.398 74.6405 54.0874C74.9629 54.3913 75.2333 54.7391 75.4488 55.1261C77.6362 59.0529 76.5127 62.8223 75.6737 64.6845C70.242 73.8621 60.2398 80.0142 48.8 80.0142C31.5606 80.0142 17.5858 66.0394 17.5858 48.7969C17.5858 31.5545 31.2295 17.9168 48.1839 17.5888C48.3892 17.5858 48.5946 17.5827 48.8 17.5827C49.3317 17.5827 49.8594 17.5958 50.3841 17.6221C50.9353 17.6497 51.491 17.6505 52.0297 17.5307C56.1032 16.6243 59.1363 13.0701 59.1363 8.82508C59.1363 4.74445 56.3293 1.30215 52.491 0.236567C52.1165 0.13258 51.7289 0.0848484 51.3406 0.0650874C50.4989 0.0222432 49.6515 0 48.8 0H48.5517C21.7148 0.134874 0 21.9293 0 48.7969C0 75.6645 21.8496 97.5969 48.8 97.5969C75.7504 97.5969 96.3034 77.0255 97.5418 51.1756C97.5816 50.3878 97.6 49.5939 97.6 48.7969C97.6 48.3555 97.5939 47.9141 97.5816 47.4727ZM58.2412 56.2947C58.4098 56.0434 58.5784 55.7981 58.7501 55.5682C58.4803 55.9913 58.2841 56.2426 58.2412 56.2947ZM58.8727 42.0287C58.888 42.0471 58.9002 42.0686 58.9125 42.0869C59.0443 42.2831 59.17 42.4824 59.2834 42.6877C59.1547 42.4701 59.0167 42.2494 58.8727 42.0287Z" fill="#E43C37"/>
<path d="M58.7501 55.5713C58.4803 55.9943 58.2841 56.2457 58.2412 56.2978C58.4098 56.0464 58.5784 55.8012 58.7501 55.5713Z" fill="#E43C37"/>
<path d="M59.2834 42.6877C59.1546 42.4701 59.0167 42.2494 58.8726 42.0287C58.8879 42.0471 58.9002 42.0685 58.9125 42.0869C59.0443 42.2831 59.17 42.4824 59.2834 42.6877Z" fill="#E43C37"/>
<path d="M75.4315 42.4058C75.294 42.5765 75.1501 42.744 75.001 42.906C74.9694 42.9404 74.9219 42.9066 74.9441 42.8656" fill="#E43C37"/>
<path d="M90.9176 37.5288C88.7626 36.6674 86.8039 36.4161 85.1088 36.4896C85.0168 36.4927 84.9279 36.4988 84.836 36.505C84.7164 36.5111 84.5938 36.5203 84.4773 36.5325C84.2965 36.5479 84.1217 36.5693 83.9501 36.5938C83.901 36.5969 83.8489 36.6061 83.7999 36.6153C83.7386 36.6245 83.6773 36.6337 83.616 36.6429C83.5516 36.6521 83.4872 36.6643 83.4228 36.6766C83.3646 36.6858 83.3033 36.6981 83.245 36.7073C83.1868 36.7195 83.1286 36.7318 83.0734 36.744C83.0213 36.7532 82.9692 36.7655 82.9171 36.7778C82.8557 36.79 82.7945 36.8023 82.7362 36.8176C82.2396 36.9341 81.7798 37.0751 81.3629 37.2253C81.2986 37.2498 81.2342 37.2713 81.1729 37.2958C80.7376 37.4583 80.3483 37.633 80.0081 37.8047C79.959 37.8292 79.91 37.8537 79.864 37.8782C79.818 37.8997 79.772 37.9242 79.7291 37.9487C79.6831 37.9732 79.6402 37.9947 79.5973 38.0192C79.5146 38.0652 79.4348 38.1112 79.3582 38.1541C80.0265 37.7372 80.7376 37.3878 81.4825 37.1088C81.74 37.0138 82.0036 36.9249 82.2703 36.8452C82.2825 36.8421 82.2948 36.8391 82.3071 36.836C82.4327 36.7992 82.5584 36.7624 82.6872 36.7318C82.8588 36.6889 83.0305 36.646 83.2052 36.6122C83.3125 36.5877 83.4198 36.5663 83.5271 36.5479C84.2321 36.4191 84.9586 36.3517 85.7004 36.3517C87.5702 36.3517 89.3389 36.7747 90.9176 37.5288Z" fill="#E43C37"/>
<path d="M49.969 17.6072C50.133 17.6132 50.135 17.7636 49.9709 17.7636C49.5709 17.7636 49.1773 17.7388 48.792 17.6901C48.715 17.6803 48.7223 17.5858 48.8 17.5858C49.1917 17.5858 49.5812 17.5929 49.969 17.6072Z" fill="#E43C37"/>
<path d="M58.7501 55.5713C58.4803 55.9943 58.2841 56.2457 58.2412 56.2978C58.4098 56.0464 58.5784 55.8012 58.7501 55.5713Z" fill="#E43C37"/>
<path d="M59.2834 42.6877C59.1546 42.4701 59.0167 42.2494 58.8726 42.0287C58.8879 42.0471 58.9002 42.0685 58.9125 42.0869C59.0443 42.2831 59.17 42.4824 59.2834 42.6877Z" fill="#E43C37"/>
<path d="M75.4315 42.4058C75.2926 42.5783 75.1471 42.7476 74.9962 42.9112C74.9655 42.9446 74.9192 42.9116 74.9408 42.8717C74.943 42.8676 74.9459 42.864 74.9494 42.8609C75.1101 42.7182 75.2708 42.5665 75.4315 42.4058Z" fill="#E43C37"/>
<path d="M78.6777 38.5894C78.598 38.6476 78.5183 38.7058 78.4386 38.7641C78.4876 38.7242 78.5674 38.6629 78.6777 38.5894Z" fill="#E43C37"/>
<path d="M95.3285 41.103C94.1668 39.5918 92.6556 38.3595 90.9175 37.5319C91.4234 37.7347 91.9429 37.9693 92.4702 38.2434C92.6435 38.3336 92.8113 38.4331 92.967 38.5512C93.4047 38.8835 94.3802 39.7101 95.3285 41.103Z" fill="#E43C37"/>
<path d="M44.5852 48.4904C46.593 48.4904 48.2207 46.8628 48.2207 44.855C48.2207 42.8471 46.593 41.2195 44.5852 41.2195C42.5774 41.2195 40.9497 42.8471 40.9497 44.855C40.9497 46.8628 42.5774 48.4904 44.5852 48.4904Z" fill="white"/>
</svg>
