<svg width="137" height="36" viewBox="0 0 137 36" fill="none" xmlns="http://www.w3.org/2000/svg">
<path d="M31.3635 13.672C30.8189 13.3976 30.2088 13.2437 29.5638 13.2437C29.3079 13.2437 29.0573 13.2682 28.814 13.315C28.777 13.3217 28.74 13.3296 28.703 13.3385C28.6427 13.3507 28.5835 13.3664 28.5243 13.382C28.4799 13.3931 28.4365 13.4054 28.3932 13.4199L28.3805 13.4233C28.2885 13.4511 28.1976 13.4835 28.1087 13.5192C27.8222 13.6308 27.5504 13.7747 27.2977 13.9487" fill="#202020"/>
<path d="M33.6622 17.2936C33.567 16.2752 33.2339 15.5125 32.8903 14.9787C32.8881 14.9765 32.8871 14.9743 32.885 14.972C32.4842 14.4215 31.9629 13.9726 31.3633 13.6711C30.62 13.3574 29.9443 13.2658 29.3595 13.2926C29.3278 13.2937 29.2971 13.296 29.2654 13.2982C29.2242 13.3004 29.1819 13.3038 29.1417 13.3082C29.0803 13.3138 29.0201 13.3216 28.9598 13.3306C28.9429 13.3317 28.9249 13.335 28.908 13.3384C28.8868 13.3417 28.8657 13.3451 28.8445 13.3484C28.8223 13.3518 28.8001 13.3562 28.7779 13.3607C28.7578 13.3641 28.7367 13.3685 28.7166 13.3719C28.6965 13.3764 28.6764 13.3808 28.6574 13.3853C28.6394 13.3886 28.6214 13.3931 28.6034 13.3976C28.5823 13.402 28.5611 13.4076 28.5411 13.4121C28.3698 13.4545 28.2111 13.5059 28.0673 13.5606C28.0451 13.5695 28.0229 13.5773 28.0018 13.5863C27.8516 13.6455 27.7173 13.7091 27.5999 13.7716C27.583 13.7806 27.5661 13.7895 27.5502 13.7984C27.5344 13.8063 27.5185 13.8152 27.5037 13.8241C27.4879 13.8331 27.4731 13.8409 27.4583 13.8498C27.4297 13.8666 27.4022 13.8833 27.3758 13.8989C27.362 13.9068 27.3493 13.9157 27.3366 13.9235C27.324 13.9324 27.3102 13.9403 27.2975 13.9481C27.2848 13.957 27.2721 13.9648 27.2605 13.9726C27.2246 13.9972 27.1928 14.0195 27.1653 14.0396C27.1569 14.0452 27.1484 14.0519 27.141 14.0575C27.1135 14.0787 27.086 14.0999 27.0585 14.1212C27.0533 14.1256 27.049 14.129 27.0437 14.1334C27.0406 14.1357 27.0395 14.1368 27.0395 14.1368C26.699 14.6638 26.3585 15.096 26.0212 15.4466C25.9556 15.5326 25.8859 15.6164 25.8129 15.6956C25.8256 15.6677 25.8393 15.6409 25.8531 15.6141C22.9314 18.437 20.3143 15.2981 20.2582 15.23C20.2572 15.23 20.2572 15.2289 20.2572 15.2289C20.1556 15.077 20.0446 14.9318 19.9262 14.7956C19.1606 13.9101 18.0588 13.3551 16.8343 13.3551C14.5217 13.3551 12.6468 15.335 12.6468 17.7771C12.6468 20.2192 14.5217 22.1979 16.8343 22.1979C18.4045 22.1979 19.7729 21.2856 20.4887 19.9356C23.0858 16.5733 25.9091 19.873 25.9091 19.873C26.8196 21.3771 26.4082 22.8522 26.1047 23.5636C24.231 26.9068 20.7806 29.1479 16.8343 29.1479C10.8873 29.1479 6.06646 24.0571 6.06646 17.776C6.06646 11.4948 10.7731 6.52682 16.6217 6.40734C16.6926 6.40622 16.7634 6.40511 16.8343 6.40511C17.1145 6.40511 17.3915 6.41627 17.6665 6.4386C19.2114 6.22532 20.3999 4.86301 20.3999 3.21484C20.3999 1.65599 19.3351 0.352861 17.9118 0.0357328C17.5554 0.0122831 17.1959 0 16.8343 0H16.7486C7.49082 0.0491326 0 7.98851 0 17.776C0 27.5634 7.53735 35.553 16.8343 35.553C26.1312 35.553 33.2212 28.0592 33.6484 18.6425C33.6622 18.3555 33.6685 18.0663 33.6685 17.776C33.6685 17.6152 33.6664 17.4544 33.6622 17.2936ZM20.0911 20.5073C20.1493 20.4157 20.2075 20.3264 20.2667 20.2426C20.1736 20.3967 20.1059 20.4883 20.0911 20.5073ZM20.309 15.3104C20.3143 15.3171 20.3185 15.3249 20.3227 15.3316C20.3682 15.4031 20.4115 15.4757 20.4507 15.5505C20.4063 15.4712 20.3587 15.3908 20.309 15.3104Z" fill="#202020"/>
<path d="M20.2668 20.2446C20.1738 20.3986 20.1061 20.4901 20.0913 20.509C20.1495 20.4175 20.2076 20.3283 20.2668 20.2446Z" fill="#202020"/>
<path d="M20.4506 15.5492C20.4062 15.4702 20.3586 15.3901 20.3089 15.3101C20.3142 15.3167 20.3184 15.3245 20.3226 15.3312C20.3681 15.4024 20.4115 15.4747 20.4506 15.5492Z" fill="#202020"/>
<path d="M26.0211 15.4487C25.9555 15.5346 25.8857 15.6183 25.8128 15.6975C25.8255 15.6696 25.8392 15.6428 25.853 15.6161" fill="#202020"/>
<path d="M31.3637 13.6701C30.6203 13.3566 29.9446 13.2651 29.3599 13.2919C29.3281 13.293 29.2975 13.2952 29.2658 13.2975C29.2245 13.2997 29.1822 13.3031 29.142 13.3075C29.0796 13.3131 29.0194 13.3209 28.9602 13.3298C28.9432 13.3309 28.9253 13.3343 28.9083 13.3376C28.8872 13.341 28.866 13.3443 28.8449 13.3477C28.8227 13.351 28.8005 13.3555 28.7783 13.3599C28.7582 13.3633 28.737 13.3678 28.7169 13.3711C28.6969 13.3756 28.6768 13.38 28.6577 13.3845C28.6398 13.3878 28.6218 13.3923 28.6038 13.3968C28.5827 13.4012 28.5615 13.4057 28.5414 13.4113C28.3701 13.4537 28.2115 13.505 28.0677 13.5596C28.0455 13.5686 28.0233 13.5764 28.0021 13.5853C27.852 13.6444 27.7177 13.708 27.6003 13.7705C27.5834 13.7794 27.5665 13.7883 27.5506 13.7973C27.5347 13.8051 27.5189 13.814 27.5041 13.8229C27.4882 13.8318 27.4734 13.8396 27.4586 13.8486C27.4301 13.8653 27.4026 13.882 27.3761 13.8977C27.6066 13.7459 27.852 13.6188 28.1089 13.5172C28.1978 13.4827 28.2887 13.4503 28.3807 13.4213C28.3849 13.4202 28.3891 13.4191 28.3934 13.418C28.4367 13.4046 28.4801 13.3912 28.5245 13.38C28.5837 13.3644 28.6429 13.3488 28.7032 13.3365C28.7402 13.3276 28.7772 13.3198 28.8142 13.3131C29.0574 13.2662 29.3081 13.2417 29.5639 13.2417C30.209 13.2417 30.8191 13.3956 31.3637 13.6701Z" fill="#202020"/>
<path d="M17.6665 6.43887C17.5269 6.46015 17.3841 6.47023 17.2382 6.47023C17.0267 6.47023 16.8205 6.44895 16.6217 6.40751C16.6926 6.40639 16.7634 6.40527 16.8343 6.40527C17.1145 6.40527 17.3915 6.41647 17.6665 6.43887Z" fill="#202020"/>
<path d="M20.2668 20.2446C20.1738 20.3986 20.1061 20.4901 20.0913 20.509C20.1495 20.4175 20.2076 20.3283 20.2668 20.2446Z" fill="#202020"/>
<path d="M20.4506 15.5492C20.4062 15.4702 20.3586 15.3901 20.3089 15.3101C20.3142 15.3167 20.3184 15.3245 20.3226 15.3312C20.3681 15.4024 20.4115 15.4747 20.4506 15.5492Z" fill="#202020"/>
<path d="M26.0211 15.4487C25.9555 15.5346 25.8857 15.6183 25.8128 15.6975C25.8255 15.6696 25.8392 15.6428 25.853 15.6161C25.909 15.5636 25.965 15.5079 26.0211 15.4487Z" fill="#202020"/>
<path d="M27.1419 14.0576C27.1142 14.0791 27.0865 14.1005 27.0588 14.1219C27.0758 14.1073 27.1035 14.0847 27.1419 14.0576Z" fill="#202020"/>
<path d="M32.8851 14.9733C32.4843 14.4227 31.963 13.9739 31.3635 13.6724C31.5665 13.7583 31.7759 13.86 31.9884 13.9817C31.9884 13.9817 32.4452 14.291 32.8851 14.9733Z" fill="#202020"/>
<path d="M15.5801 17.7771C16.2727 17.7771 16.8342 17.1842 16.8342 16.4528C16.8342 15.7213 16.2727 15.1284 15.5801 15.1284C14.8874 15.1284 14.326 15.7213 14.326 16.4528C14.326 17.1842 14.8874 17.7771 15.5801 17.7771Z" fill="#202020"/>
<path d="M36.2909 35.5534V14.8428H41.9049L42.1634 21.5903L41.0554 20.3032C41.3509 19.1851 41.831 18.1841 42.4958 17.3C43.1853 16.4159 43.9855 15.7139 44.8966 15.1938C45.8076 14.6738 46.7802 14.4138 47.8144 14.4138C48.2576 14.4138 48.6639 14.4528 49.0332 14.5308C49.4272 14.6088 49.7842 14.6998 50.1043 14.8038L48.4792 21.7073C48.2084 21.5253 47.839 21.3823 47.3712 21.2783C46.928 21.1483 46.4601 21.0833 45.9677 21.0833C45.426 21.0833 44.9212 21.1873 44.4534 21.3953C43.9855 21.5773 43.5916 21.8503 43.2715 22.2144C42.9514 22.5784 42.6928 23.0074 42.4958 23.5015C42.3235 23.9955 42.2373 24.5546 42.2373 25.1786V35.5534H36.2909Z" fill="#202020"/>
<path d="M59.5085 35.9044C57.8587 35.9044 56.3814 35.4494 55.0764 34.5393C53.796 33.6032 52.7741 32.3291 52.0108 30.717C51.2475 29.0789 50.8658 27.2328 50.8658 25.1786C50.8658 23.0724 51.2475 21.2133 52.0108 19.6012C52.7741 17.9891 53.8206 16.728 55.1502 15.8179C56.4799 14.8818 57.9942 14.4138 59.6932 14.4138C60.6288 14.4138 61.4783 14.5568 62.2416 14.8428C63.0296 15.1288 63.719 15.5319 64.31 16.0519C64.9009 16.5459 65.4057 17.131 65.8243 17.807C66.2429 18.4571 66.5507 19.1591 66.7476 19.9132L65.5288 19.7572V14.8428H71.4014V35.5534H65.418V30.561L66.7476 30.522C66.5507 31.2501 66.2306 31.9391 65.7873 32.5892C65.3441 33.2392 64.8024 33.8113 64.1622 34.3053C63.522 34.7993 62.808 35.1894 62.02 35.4754C61.2321 35.7614 60.3949 35.9044 59.5085 35.9044ZM61.1336 30.639C62.0447 30.639 62.8326 30.418 63.4974 29.976C64.1622 29.5339 64.6793 28.9099 65.0487 28.1038C65.418 27.2718 65.6027 26.2967 65.6027 25.1786C65.6027 24.0605 65.418 23.0984 65.0487 22.2924C64.6793 21.4603 64.1622 20.8233 63.4974 20.3812C62.8326 19.9132 62.0447 19.6792 61.1336 19.6792C60.2472 19.6792 59.4716 19.9132 58.8067 20.3812C58.1665 20.8233 57.6618 21.4603 57.2924 22.2924C56.9231 23.0984 56.7384 24.0605 56.7384 25.1786C56.7384 26.2967 56.9231 27.2718 57.2924 28.1038C57.6618 28.9099 58.1665 29.5339 58.8067 29.976C59.4716 30.418 60.2472 30.639 61.1336 30.639Z" fill="#202020"/>
<path d="M77.8346 35.5534V13.8287C77.8346 12.4766 78.1055 11.2545 78.6472 10.1625C79.2135 9.07037 79.9891 8.21231 80.974 7.58826C81.9836 6.93821 83.1532 6.61319 84.4828 6.61319C85.4185 6.61319 86.2803 6.7562 87.0682 7.04222C87.8562 7.32824 88.5579 7.73127 89.1735 8.25131L87.4745 12.8147C87.1544 12.6326 86.8466 12.4896 86.5511 12.3856C86.2557 12.2816 85.9848 12.2296 85.7386 12.2296C85.2954 12.2296 84.926 12.3076 84.6305 12.4636C84.3351 12.6196 84.1135 12.8667 83.9657 13.2047C83.8426 13.5167 83.7811 13.9067 83.7811 14.3748V35.5534H80.8263C80.1615 35.5534 79.5705 35.5534 79.0534 35.5534C78.561 35.5534 78.1547 35.5534 77.8346 35.5534ZM74.9907 20.5762V15.4279H87.8069V20.5762H74.9907ZM92.3498 35.5534V13.8287C92.3498 12.4766 92.6207 11.2545 93.1624 10.1625C93.7287 9.07037 94.5044 8.21231 95.4893 7.58826C96.4988 6.93821 97.6684 6.61319 98.998 6.61319C99.9337 6.61319 100.796 6.7562 101.583 7.04222C102.371 7.32824 103.073 7.73127 103.689 8.25131L101.99 12.8147C101.67 12.6326 101.362 12.4896 101.066 12.3856C100.771 12.2816 100.5 12.2296 100.254 12.2296C99.8106 12.2296 99.4413 12.3076 99.1458 12.4636C98.8503 12.6196 98.6287 12.8667 98.481 13.2047C98.3578 13.5167 98.2963 13.9067 98.2963 14.3748V35.5534H95.3415C94.6767 35.5534 94.0858 35.5534 93.5687 35.5534C93.0762 35.5534 92.6699 35.5534 92.3498 35.5534ZM89.5059 20.5762V15.4279H102.322V20.5762H89.5059ZM105.979 35.5534V14.8428H111.888V35.5534H105.979ZM108.933 10.7475C107.825 10.7475 106.951 10.4745 106.311 9.92844C105.695 9.3564 105.388 8.55033 105.388 7.51026C105.388 6.57418 105.708 5.80713 106.348 5.20908C106.988 4.61103 107.85 4.31201 108.933 4.31201C110.041 4.31201 110.903 4.59803 111.519 5.17008C112.134 5.71612 112.442 6.49618 112.442 7.51026C112.442 8.47233 112.122 9.25239 111.482 9.85043C110.866 10.4485 110.017 10.7475 108.933 10.7475Z" fill="#202020"/>
<path d="M129.523 35.5534L125.35 28.8839L123.429 26.0367L115.673 14.8428H122.764L126.79 21.2003L128.895 24.2425L136.541 35.5534H129.523ZM115.488 35.5534L123.392 23.9305L126.568 27.9478L122.469 35.5534H115.488ZM128.452 26.5437L125.313 22.5654L129.191 14.8428H136.171L128.452 26.5437Z" fill="#202020"/>
</svg>
