<svg width="44" height="43" viewBox="0 0 44 43" fill="none" xmlns="http://www.w3.org/2000/svg">
<g filter="url(#filter0_d_466_1079)">
<rect x="3" width="38" height="38" rx="4.30753" fill="white"/>
</g>
<path d="M29 18.7105C29 22.4166 25.866 25.4211 22 25.4211C18.134 25.4211 15 22.4166 15 18.7105C15 15.0044 18.134 12 22 12C25.866 12 29 15.0044 29 18.7105Z" fill="#202020"/>
<path d="M22 29C21.5508 27.0691 21.1237 26.0363 19.9793 24.3026H24.0207C22.9413 25.9532 22.5318 27.0012 22 29Z" fill="#202020"/>
<path d="M22 29L21.513 29.1133C21.565 29.3369 21.7626 29.4963 21.9921 29.4999C22.2216 29.5036 22.4241 29.3504 22.4832 29.1286L22 29ZM19.9793 24.3026V23.8026C19.7953 23.8026 19.6261 23.9037 19.539 24.0657C19.4518 24.2277 19.4606 24.4245 19.562 24.5781L19.9793 24.3026ZM24.0207 24.3026L24.4392 24.5763C24.5397 24.4226 24.5478 24.2262 24.4605 24.0648C24.3731 23.9033 24.2043 23.8026 24.0207 23.8026V24.3026ZM28.5 18.7105C28.5 22.1208 25.61 24.9211 22 24.9211V25.9211C26.122 25.9211 29.5 22.7125 29.5 18.7105H28.5ZM22 24.9211C18.39 24.9211 15.5 22.1208 15.5 18.7105H14.5C14.5 22.7125 17.878 25.9211 22 25.9211V24.9211ZM15.5 18.7105C15.5 15.3002 18.39 12.5 22 12.5V11.5C17.878 11.5 14.5 14.7086 14.5 18.7105H15.5ZM22 12.5C25.61 12.5 28.5 15.3002 28.5 18.7105H29.5C29.5 14.7086 26.122 11.5 22 11.5V12.5ZM23.8333 18.7105C23.8333 19.6501 23.0326 20.4474 22 20.4474V21.4474C23.5447 21.4474 24.8333 20.2417 24.8333 18.7105H23.8333ZM22 20.4474C20.9674 20.4474 20.1667 19.6501 20.1667 18.7105H19.1667C19.1667 20.2417 20.4553 21.4474 22 21.4474V20.4474ZM20.1667 18.7105C20.1667 17.771 20.9674 16.9737 22 16.9737V15.9737C20.4553 15.9737 19.1667 17.1793 19.1667 18.7105H20.1667ZM22 16.9737C23.0326 16.9737 23.8333 17.771 23.8333 18.7105H24.8333C24.8333 17.1793 23.5447 15.9737 22 15.9737V16.9737ZM22.487 28.8867C22.0248 26.8996 21.5745 25.8116 20.3965 24.0272L19.562 24.5781C20.6729 26.261 21.0769 27.2387 21.513 29.1133L22.487 28.8867ZM19.9793 24.8026H24.0207V23.8026H19.9793V24.8026ZM23.6022 24.029C22.4869 25.7345 22.0588 26.8346 21.5168 28.8714L22.4832 29.1286C23.0049 27.1678 23.3957 26.1719 24.4392 24.5763L23.6022 24.029Z" fill="#202020"/>
<defs>
<filter id="filter0_d_466_1079" x="0.846236" y="0" width="42.3075" height="42.3075" filterUnits="userSpaceOnUse" color-interpolation-filters="sRGB">
<feFlood flood-opacity="0" result="BackgroundImageFix"/>
<feColorMatrix in="SourceAlpha" type="matrix" values="0 0 0 0 0 0 0 0 0 0 0 0 0 0 0 0 0 0 127 0" result="hardAlpha"/>
<feOffset dy="2.15376"/>
<feGaussianBlur stdDeviation="1.07688"/>
<feColorMatrix type="matrix" values="0 0 0 0 0 0 0 0 0 0 0 0 0 0 0 0 0 0 0.18 0"/>
<feBlend mode="normal" in2="BackgroundImageFix" result="effect1_dropShadow_466_1079"/>
<feBlend mode="normal" in="SourceGraphic" in2="effect1_dropShadow_466_1079" result="shape"/>
</filter>
</defs>
</svg>
