<svg width="44" height="43" viewBox="0 0 44 43" fill="none" xmlns="http://www.w3.org/2000/svg">
<g filter="url(#filter0_d_466_1076)">
<rect x="3" width="38" height="38" rx="4.30753" fill="white"/>
</g>
<path fill-rule="evenodd" clip-rule="evenodd" d="M19.75 12C18.5074 12 17.5 13.0074 17.5 14.25H15.25C14.0074 14.25 13 15.2574 13 16.5V24.375C13 25.6176 14.0074 26.625 15.25 26.625H28.75C29.9926 26.625 31 25.6176 31 24.375V16.5C31 15.2574 29.9926 14.25 28.75 14.25H26.5C26.5 13.0074 25.4926 12 24.25 12H19.75ZM25.375 19.875C25.375 21.739 23.864 23.25 22 23.25C20.136 23.25 18.625 21.739 18.625 19.875C18.625 18.011 20.136 16.5 22 16.5C23.864 16.5 25.375 18.011 25.375 19.875ZM28.525 17.175C29.0221 17.175 29.425 16.7721 29.425 16.275C29.425 15.7779 29.0221 15.375 28.525 15.375C28.0279 15.375 27.625 15.7779 27.625 16.275C27.625 16.7721 28.0279 17.175 28.525 17.175Z" fill="black"/>
<defs>
<filter id="filter0_d_466_1076" x="0.846236" y="0" width="42.3075" height="42.3075" filterUnits="userSpaceOnUse" color-interpolation-filters="sRGB">
<feFlood flood-opacity="0" result="BackgroundImageFix"/>
<feColorMatrix in="SourceAlpha" type="matrix" values="0 0 0 0 0 0 0 0 0 0 0 0 0 0 0 0 0 0 127 0" result="hardAlpha"/>
<feOffset dy="2.15376"/>
<feGaussianBlur stdDeviation="1.07688"/>
<feColorMatrix type="matrix" values="0 0 0 0 0 0 0 0 0 0 0 0 0 0 0 0 0 0 0.18 0"/>
<feBlend mode="normal" in2="BackgroundImageFix" result="effect1_dropShadow_466_1076"/>
<feBlend mode="normal" in="SourceGraphic" in2="effect1_dropShadow_466_1076" result="shape"/>
</filter>
</defs>
</svg>
