<svg width="38" height="38" viewBox="0 0 38 38" fill="none" xmlns="http://www.w3.org/2000/svg">
<rect width="38" height="38" rx="4.30753" fill="#E43C37"/>
<path d="M30.445 11.9909C30.445 13.2891 29.3926 14.3415 28.0944 14.3415C26.7962 14.3415 25.7438 13.2891 25.7438 11.9909C25.7438 10.6927 26.7962 9.64026 28.0944 9.64026C29.3926 9.64026 30.445 10.6927 30.445 11.9909Z" stroke="white"/>
<path d="M12.2012 17.6921C12.2012 18.9903 11.1488 20.0427 9.8506 20.0427C8.5524 20.0427 7.5 18.9903 7.5 17.6921C7.5 16.3939 8.5524 15.3415 9.8506 15.3415C11.1488 15.3415 12.2012 16.3939 12.2012 17.6921ZM25.8841 27.8972C25.8841 29.1954 24.8317 30.2478 23.5335 30.2478C22.2353 30.2478 21.1829 29.1954 21.1829 27.8972C21.1829 26.599 22.2353 25.5466 23.5335 25.5466C24.8317 25.5466 25.8841 26.599 25.8841 27.8972Z" stroke="white"/>
<mask id="path-4-inside-1_466_1078" fill="white">
<path fill-rule="evenodd" clip-rule="evenodd" d="M29.545 18.7684C29.545 21.663 28.2163 24.2571 26.1253 25.9775C26.331 26.4024 26.4463 26.8793 26.4463 27.3832C26.4463 27.4212 26.4457 27.4591 26.4444 27.4969C29.1711 25.5405 30.945 22.3597 30.945 18.7684C30.945 17.546 30.7395 16.3713 30.3609 15.2762C29.9771 15.5414 29.5445 15.7412 29.0794 15.8592C29.3816 16.7755 29.545 17.7535 29.545 18.7684ZM24.4168 10.4386C24.6021 10.0002 24.8634 9.60176 25.1844 9.25991C23.6626 8.45577 21.9251 8 20.0801 8C15.6228 8 11.7924 10.6602 10.1171 14.4662C10.1782 14.4628 10.2397 14.4611 10.3017 14.4611C10.7437 14.4611 11.1651 14.5482 11.5494 14.7062C13.0764 11.5702 16.3168 9.4 20.0801 9.4C21.6445 9.4 23.1186 9.77504 24.4168 10.4386ZM10.8559 20.8756C11.8204 25.026 15.5724 28.1338 20.0737 28.1368C20.1977 28.6558 20.447 29.1262 20.7879 29.5143C20.5539 29.5292 20.3179 29.5368 20.0801 29.5368C14.7801 29.5368 10.3664 25.7755 9.4082 20.7992C9.69214 20.8792 9.99188 20.9221 10.3017 20.9221C10.4906 20.9221 10.6758 20.9062 10.8559 20.8756Z"/>
</mask>
<path fill-rule="evenodd" clip-rule="evenodd" d="M29.545 18.7684C29.545 21.663 28.2163 24.2571 26.1253 25.9775C26.331 26.4024 26.4463 26.8793 26.4463 27.3832C26.4463 27.4212 26.4457 27.4591 26.4444 27.4969C29.1711 25.5405 30.945 22.3597 30.945 18.7684C30.945 17.546 30.7395 16.3713 30.3609 15.2762C29.9771 15.5414 29.5445 15.7412 29.0794 15.8592C29.3816 16.7755 29.545 17.7535 29.545 18.7684ZM24.4168 10.4386C24.6021 10.0002 24.8634 9.60176 25.1844 9.25991C23.6626 8.45577 21.9251 8 20.0801 8C15.6228 8 11.7924 10.6602 10.1171 14.4662C10.1782 14.4628 10.2397 14.4611 10.3017 14.4611C10.7437 14.4611 11.1651 14.5482 11.5494 14.7062C13.0764 11.5702 16.3168 9.4 20.0801 9.4C21.6445 9.4 23.1186 9.77504 24.4168 10.4386ZM10.8559 20.8756C11.8204 25.026 15.5724 28.1338 20.0737 28.1368C20.1977 28.6558 20.447 29.1262 20.7879 29.5143C20.5539 29.5292 20.3179 29.5368 20.0801 29.5368C14.7801 29.5368 10.3664 25.7755 9.4082 20.7992C9.69214 20.8792 9.99188 20.9221 10.3017 20.9221C10.4906 20.9221 10.6758 20.9062 10.8559 20.8756Z" fill="white"/>
<path d="M26.1253 25.9775L25.4899 25.2052L24.8825 25.7051L25.2252 26.4131L26.1253 25.9775ZM26.4444 27.4969L25.445 27.4623L25.3746 29.4952L27.0273 28.3094L26.4444 27.4969ZM30.3609 15.2762L31.306 14.9494L30.8757 13.7047L29.7923 14.4535L30.3609 15.2762ZM29.0794 15.8592L28.8334 14.89L27.7937 15.1539L28.1297 16.1725L29.0794 15.8592ZM24.4168 10.4386L23.9617 11.329L24.9193 11.8185L25.3379 10.8279L24.4168 10.4386ZM25.1844 9.25991L25.9134 9.94435L26.8109 8.98838L25.6516 8.37576L25.1844 9.25991ZM10.1171 14.4662L9.20182 14.0633L8.54529 15.5547L10.1723 15.4646L10.1171 14.4662ZM11.5494 14.7062L11.1692 15.6311L12.0375 15.988L12.4485 15.144L11.5494 14.7062ZM20.0737 28.1368L21.0463 27.9043L20.863 27.1373L20.0743 27.1368L20.0737 28.1368ZM10.8559 20.8756L11.83 20.6492L11.6168 19.7321L10.6885 19.8897L10.8559 20.8756ZM20.7879 29.5143L20.8515 30.5122L22.8819 30.3828L21.5392 28.8543L20.7879 29.5143ZM9.4082 20.7992L9.67952 19.8367L8.11983 19.397L8.42624 20.9883L9.4082 20.7992ZM26.7607 26.7497C29.0711 24.8487 30.545 21.9765 30.545 18.7684H28.545C28.545 21.3496 27.3614 23.6654 25.4899 25.2052L26.7607 26.7497ZM27.4463 27.3832C27.4463 26.7252 27.2954 26.0996 27.0254 25.5418L25.2252 26.4131C25.3666 26.7052 25.4463 27.0335 25.4463 27.3832H27.4463ZM27.4438 27.5315C27.4455 27.4822 27.4463 27.4328 27.4463 27.3832H25.4463C25.4463 27.4097 25.4459 27.4361 25.445 27.4623L27.4438 27.5315ZM29.945 18.7684C29.945 22.0217 28.3395 24.9064 25.8614 26.6844L27.0273 28.3094C30.0027 26.1746 31.945 22.6978 31.945 18.7684H29.945ZM29.4158 15.6029C29.7585 16.5944 29.945 17.6588 29.945 18.7684H31.945C31.945 17.4333 31.7204 16.1481 31.306 14.9494L29.4158 15.6029ZM29.7923 14.4535C29.5045 14.6525 29.1808 14.8018 28.8334 14.89L29.3254 16.8285C29.9082 16.6806 30.4497 16.4304 30.9294 16.0988L29.7923 14.4535ZM30.545 18.7684C30.545 17.6456 30.3642 16.5619 30.029 15.546L28.1297 16.1725C28.3991 16.9891 28.545 17.8614 28.545 18.7684H30.545ZM25.3379 10.8279C25.4765 10.5 25.6723 10.2012 25.9134 9.94435L24.4553 8.57547C24.0546 9.00234 23.7277 9.50038 23.4957 10.0493L25.3379 10.8279ZM20.0801 9C21.7586 9 23.3362 9.4143 24.7172 10.1441L25.6516 8.37576C23.989 7.49724 22.0915 7 20.0801 7V9ZM11.0323 14.8691C12.5521 11.4165 16.0295 9 20.0801 9V7C15.2161 7 11.0328 9.90392 9.20182 14.0633L11.0323 14.8691ZM10.3017 13.4611C10.2213 13.4611 10.1413 13.4633 10.0618 13.4677L10.1723 15.4646C10.215 15.4623 10.2582 15.4611 10.3017 15.4611V13.4611ZM11.9295 13.7813C11.4266 13.5745 10.8762 13.4611 10.3017 13.4611V15.4611C10.6112 15.4611 10.9036 15.5219 11.1692 15.6311L11.9295 13.7813ZM20.0801 8.4C15.9233 8.4 12.3399 10.7985 10.6503 14.2684L12.4485 15.144C13.8128 12.342 16.7104 10.4 20.0801 10.4V8.4ZM24.8719 9.54817C23.4358 8.81409 21.806 8.4 20.0801 8.4V10.4C21.483 10.4 22.8015 10.736 23.9617 11.329L24.8719 9.54817ZM20.0743 27.1368C16.0428 27.1341 12.6903 24.3516 11.83 20.6492L9.88186 21.1019C10.9505 25.7004 15.1021 29.1335 20.073 29.1368L20.0743 27.1368ZM21.5392 28.8543C21.3031 28.5856 21.1315 28.2611 21.0463 27.9043L19.1011 28.3692C19.2639 29.0506 19.591 29.6669 20.0366 30.1742L21.5392 28.8543ZM20.0801 30.5368C20.3391 30.5368 20.5964 30.5285 20.8515 30.5122L20.7243 28.5163C20.5115 28.5299 20.2967 28.5368 20.0801 28.5368V30.5368ZM8.42624 20.9883C9.47459 26.4326 14.2979 30.5368 20.0801 30.5368V28.5368C15.2623 28.5368 11.2583 25.1184 10.3902 20.6101L8.42624 20.9883ZM10.3017 19.9221C10.0845 19.9221 9.87599 19.8921 9.67952 19.8367L9.13688 21.7617C9.50829 21.8664 9.8993 21.9221 10.3017 21.9221V19.9221ZM10.6885 19.8897C10.5635 19.9109 10.4343 19.9221 10.3017 19.9221V21.9221C10.5469 21.9221 10.7881 21.9014 11.0233 21.8615L10.6885 19.8897Z" fill="white" mask="url(#path-4-inside-1_466_1078)"/>
</svg>
